<?xml version="1.0" encoding="iso-8859-1"?>
<!-- Generator: Adobe Illustrator 19.0.0, SVG Export Plug-In . SVG Version: 6.00 Build 0)  -->
<svg version="1.1" id="Layer_1" xmlns="http://www.w3.org/2000/svg" xmlns:xlink="http://www.w3.org/1999/xlink" x="0px" y="0px"
	 viewBox="0 0 511.868 511.868" style="enable-background:new 0 0 511.868 511.868;" xml:space="preserve">
<g>
	<g>
		<path d="M442.751,177.893L287.006,12.646c-18.087-16.677-44.167-16.677-61.158-1.081l-160.03,167.22
			c-46.678,43.264-59.249,111.989-25.44,174.98c24.753,46.092,60.574,72.706,108.093,74.525c18.619,0.715,31.433-1.797,44.081-9.01
			c-0.275,7.412-2.019,11.744-8.536,23.139l-14.429,25.272c-11.286,19.655,2.978,44.178,25.652,44.178h122.069
			c22.667,0,36.882-24.486,25.657-44.169l-14.454-25.279c-5.909-10.363-7.885-14.883-8.402-21.187
			c10.256,5.533,21.941,7.691,37.719,7.055c46.653-1.92,85.51-26.844,110.72-68.645
			C507.012,295.915,493.167,224.665,442.751,177.893z M432.015,337.602c-18.088,29.992-44.214,46.75-75.925,48.055
			c-11.694,0.472-15.002-0.643-20.083-5.191c-1.884-1.686-10.535-10.37-11.882-11.67c-17.482-16.921-46.837-4.566-46.837,19.851
			v28.16c0,17.771,3.628,28.281,14.172,46.771l3.216,5.624h-76.819l3.206-5.614c10.557-18.46,14.199-28.995,14.199-46.78v-27.883
			c0-24.379-29.093-36.862-46.831-20.313c-16.319,15.237-21.294,17.698-38.324,17.044c-30.923-1.183-54.025-18.348-72.136-52.072
			c-24.492-45.632-15.777-93.278,17.775-124.413L255.69,42.029c-0.317,0.352,0.697,0.352,1.369,0.97l155.662,165.169
			C449.957,242.778,459.526,292.022,432.015,337.602z"/>
	</g>
</g>
<g>
</g>
<g>
</g>
<g>
</g>
<g>
</g>
<g>
</g>
<g>
</g>
<g>
</g>
<g>
</g>
<g>
</g>
<g>
</g>
<g>
</g>
<g>
</g>
<g>
</g>
<g>
</g>
<g>
</g>
</svg>
